<svg xmlns="http://www.w3.org/2000/svg" xmlns:xlink="http://www.w3.org/1999/xlink">
	<symbol id="icon-pinterest" viewBox="0 0 384 512">
		<path d="M204 6.5C101.4 6.5 0 74.9 0 185.6 0 256 39.6 296 63.6 296c9.9 0 15.6-27.6 15.6-35.4 0-9.3-23.7-29.1-23.7-67.8 0-80.4 61.2-137.4 140.4-137.4 68.1 0 118.5 38.7 118.5 109.8 0 53.1-21.3 152.7-90.3 152.7-24.9 0-46.2-18-46.2-43.8 0-37.8 26.4-74.4 26.4-113.4 0-66.2-93.9-54.2-93.9 25.8 0 16.8 2.1 35.4 9.6 50.7-13.8 59.4-42 147.9-42 209.1 0 18.9 2.7 37.5 4.5 56.4 3.4 3.8 1.7 3.4 6.9 1.5 50.4-69 48.6-82.5 71.4-172.8 12.3 23.4 44.1 36 69.3 36 106.2 0 153.9-103.5 153.9-196.8C384 71.3 298.2 6.5 204 6.5z"/>
	</symbol>
	<symbol id="icon-facebook" viewBox="0 0 320 512">
		<path d="M279.14 288l14.22-92.66h-88.91v-60.13c0-25.35 12.42-50.06 52.24-50.06h40.42V6.26S260.43 0 225.36 0c-73.22 0-121.08 44.38-121.08 124.72v70.62H22.89V288h81.39v224h100.17V288z"/>
	</symbol>
	<symbol id="icon-mortarr" viewBox="0 0 59 22">
		<path d="M23.63 6.88 18.07.2a.491.491 0 0 0-.69-.07h-.01L.18 14.43c-.21.17-.24.48-.07.69h.01l5.56 6.69c.17.21.48.24.69.07h.01l17.21-14.3c.21-.18.22-.5.04-.71ZM41.27 6.88 35.69.18A.491.491 0 0 0 35 .11h-.01l-17.2 14.31c-.21.17-.24.48-.07.69h.01l5.56 6.69c.17.21.48.24.69.07h.01l17.2-14.3c.21-.17.25-.48.08-.69ZM58.89 6.86 53.33.18a.491.491 0 0 0-.69-.07h-.01l-17.2 14.31c-.21.17-.24.48-.07.69h.01l5.56 6.69c.17.21.48.24.69.07h.01l17.2-14.3c.21-.18.23-.49.06-.71Z"/>
	</symbol>
	<symbol id="icon-houzz" viewBox="0 0 150 150">
		<polygon points="90.5,139 132.8,139 132.8,67.6 48.3,43.3 48.3,13.2 20.3,13.2 20.3,139 62.5,139 62.5,99.4 90.5,99.4"></polygon>
	</symbol>
	<symbol id="icon-envelope" viewBox="0 0 512 512">
		<path d="M502.3 190.8c3.9-3.1 9.7-.2 9.7 4.7V400c0 26.5-21.5 48-48 48H48c-26.5 0-48-21.5-48-48V195.6c0-5 5.7-7.8 9.7-4.7 22.4 17.4 52.1 39.5 154.1 113.6 21.1 15.4 56.7 47.8 92.2 47.6 35.7.3 72-32.8 92.3-47.6 102-74.1 131.6-96.3 154-113.7zM256 320c23.2.4 56.6-29.2 73.4-41.4 132.7-96.3 142.8-104.7 173.4-128.7 5.8-4.5 9.2-11.5 9.2-18.9v-19c0-26.5-21.5-48-48-48H48C21.5 64 0 85.5 0 112v19c0 7.4 3.4 14.3 9.2 18.9 30.6 23.9 40.7 32.4 173.4 128.7 16.8 12.2 50.2 41.8 73.4 41.4z"/>
	</symbol>
	<symbol id="icon-youtube" viewBox="0 0 576 512">
		<path d="M549.655 124.083c-6.281-23.65-24.787-42.276-48.284-48.597C458.781 64 288 64 288 64S117.22 64 74.629 75.486c-23.497 6.322-42.003 24.947-48.284 48.597-11.412 42.867-11.412 132.305-11.412 132.305s0 89.438 11.412 132.305c6.281 23.65 24.787 41.5 48.284 47.821C117.22 448 288 448 288 448s170.78 0 213.371-11.486c23.497-6.321 42.003-24.171 48.284-47.821 11.412-42.867 11.412-132.305 11.412-132.305s0-89.438-11.412-132.305zm-317.51 213.508V175.185l142.739 81.205-142.739 81.201z"/>
	</symbol>
	<symbol id="icon-twitter" viewBox="0 0 512 512">
		<path d="M459.37 151.716c.325 4.548.325 9.097.325 13.645 0 138.72-105.583 298.558-298.558 298.558-59.452 0-114.68-17.219-161.137-47.106 8.447.974 16.568 1.299 25.34 1.299 49.055 0 94.213-16.568 130.274-44.832-46.132-.975-84.792-31.188-98.112-72.772 6.498.974 12.995 1.624 19.818 1.624 9.421 0 18.843-1.3 27.614-3.573-48.081-9.747-84.143-51.98-84.143-102.985v-1.299c13.969 7.797 30.214 12.67 47.431 13.319-28.264-18.843-46.781-51.005-46.781-87.391 0-19.492 5.197-37.36 14.294-52.954 51.655 63.675 129.3 105.258 216.365 109.807-1.624-7.797-2.599-15.918-2.599-24.04 0-57.828 46.782-104.934 104.934-104.934 30.213 0 57.502 12.67 76.67 33.137 23.715-4.548 46.456-13.32 66.599-25.34-7.798 24.366-24.366 44.833-46.132 57.827 21.117-2.273 41.584-8.122 60.426-16.243-14.292 20.791-32.161 39.308-52.628 54.253z"/>
	</symbol>
	<symbol id="icon-linkedin" viewBox="0 0 448 512">
		<path d="M100.28 448H7.4V148.9h92.88zM53.79 108.1C24.09 108.1 0 83.5 0 53.8a53.79 53.79 0 0 1 107.58 0c0 29.7-24.1 54.3-53.79 54.3zM447.9 448h-92.68V302.4c0-34.7-.7-79.2-48.29-79.2-48.29 0-55.69 37.7-55.69 76.7V448h-92.78V148.9h89.08v40.8h1.3c12.4-23.5 42.69-48.3 87.88-48.3 94 0 111.28 61.9 111.28 142.3V448z"/>
	</symbol>
	<symbol id="icon-instagram" viewBox="0 0 448 512">
		<path d="M224.1 141c-63.6 0-114.9 51.3-114.9 114.9s51.3 114.9 114.9 114.9S339 319.5 339 255.9 287.7 141 224.1 141zm0 189.6c-41.1 0-74.7-33.5-74.7-74.7s33.5-74.7 74.7-74.7 74.7 33.5 74.7 74.7-33.6 74.7-74.7 74.7zm146.4-194.3c0 14.9-12 26.8-26.8 26.8-14.9 0-26.8-12-26.8-26.8s12-26.8 26.8-26.8 26.8 12 26.8 26.8zm76.1 27.2c-1.7-35.9-9.9-67.7-36.2-93.9-26.2-26.2-58-34.4-93.9-36.2-37-2.1-147.9-2.1-184.9 0-35.8 1.7-67.6 9.9-93.9 36.1s-34.4 58-36.2 93.9c-2.1 37-2.1 147.9 0 184.9 1.7 35.9 9.9 67.7 36.2 93.9s58 34.4 93.9 36.2c37 2.1 147.9 2.1 184.9 0 35.9-1.7 67.7-9.9 93.9-36.2 26.2-26.2 34.4-58 36.2-93.9 2.1-37 2.1-147.8 0-184.8zM398.8 388c-7.8 19.6-22.9 34.7-42.6 42.6-29.5 11.7-99.5 9-132.1 9s-102.7 2.6-132.1-9c-19.6-7.8-34.7-22.9-42.6-42.6-11.7-29.5-9-99.5-9-132.1s-2.6-102.7 9-132.1c7.8-19.6 22.9-34.7 42.6-42.6 29.5-11.7 99.5-9 132.1-9s102.7-2.6 132.1 9c19.6 7.8 34.7 22.9 42.6 42.6 11.7 29.5 9 99.5 9 132.1s2.7 102.7-9 132.1z"/>
	</symbol>
	<symbol id="icon-pin" viewBox="0 0 52.12 80">
		<path d="M26.06 0C11.69 0 0 11.69 0 26.06s23.17 51.29 24.16 52.88c.41.66 1.13 1.06 1.9 1.06s1.49-.4 1.9-1.06c.99-1.59 24.16-39.24 24.16-52.88C52.12 11.69 40.43 0 26.06 0Zm0 73.47C18.64 61.06 4.47 35.45 4.47 26.05c0-11.91 9.69-21.6 21.59-21.6s21.59 9.69 21.59 21.6c0 9.4-14.17 35.01-21.59 47.42Z"/><path d="M26.06 12.07c-7.62 0-13.83 6.2-13.83 13.83s6.21 13.82 13.83 13.82 13.83-6.2 13.83-13.82-6.21-13.83-13.83-13.83Zm0 23.19c-5.16 0-9.36-4.2-9.36-9.36s4.2-9.36 9.36-9.36 9.36 4.2 9.36 9.36-4.2 9.36-9.36 9.36Z"/>
	</symbol>
	<symbol id="icon-bars" viewBox="0 0 47 33">
		<path class="cls-1" d="M0 0h47v2H0zM0 15.5h47v2H0zM0 31h47v2H0z"/>
	</symbol>
	<symbol id="icon-search" viewBox="0 0 15.5 15.72">
		<path class="cls-1" transform="rotate(-45 3.095 12.638)" d="M-.28 11.63h6.75v2H-.28z"/><path class="cls-1" d="M9.54 11.92c-3.29 0-5.96-2.67-5.96-5.96S6.25 0 9.54 0s5.96 2.67 5.96 5.96-2.67 5.96-5.96 5.96Zm0-9.92C7.36 2 5.58 3.78 5.58 5.96s1.78 3.96 3.96 3.96 3.96-1.78 3.96-3.96S11.72 2 9.54 2Z"/>
	</symbol>
	<symbol id="btn-line" viewBox="0 0 29 1">
		<path d="M29 .539H0"/>
	</symbol>
	<symbol id="arrow-right" viewBox="0 0 29 7.36">
		<path d="M28.85 4.04c.2-.2.2-.51 0-.71L25.67.15c-.2-.2-.51-.2-.71 0-.2.2-.2.51 0 .71l2.83 2.83-2.83 2.83c-.2.2-.2.51 0 .71.2.2.51.2.71 0l3.18-3.18ZM.5 3.18c-.28 0-.5.22-.5.5s.22.5.5.5v-1Zm28 0H.5v1h28v-1Z"/>
	</symbol>
	<symbol id="btn-line-17" viewBox="0 0 17 1">
		<path d="M16.5 0H.5C.22 0 0 .22 0 .5s.22.5.5.5h16c.28 0 .5-.22.5-.5s-.22-.5-.5-.5Z"/>
	</symbol>
	<symbol id="arrow-right-17" viewBox="0 0 17 7.38">
		<path d="M16.85 4.04c.2-.2.2-.51 0-.71L13.67.15c-.2-.2-.51-.2-.71 0-.2.2-.2.51 0 .71l2.83 2.83-2.83 2.83c-.2.2-.2.51 0 .71.2.2.51.2.71 0l3.18-3.18ZM.5 3.18c-.28 0-.5.22-.5.5s.22.5.5.5v-1Zm16 0H.5v1h16v-1Z"/>
	</symbol>
	<symbol id="arrow-left" viewBox="0 0 29 7.36">
		<path d="M3.33 7.22c.2.2.51.2.71 0 .2-.2.2-.51 0-.71L1.21 3.68 4.04.85c.2-.2.2-.51 0-.71-.2-.2-.51-.2-.71 0L.15 3.33c-.2.2-.2.51 0 .71l3.18 3.18ZM28.5 4.18c.28 0 .5-.22.5-.5s-.22-.5-.5-.5v1Zm-28 0h28v-1H.5v1Z"/>
	</symbol>
	<symbol id="caret-right" viewBox="0 0 13 26">
		<path d="M.854 25.354a.5.5 0 0 1-.708-.708l.708.708ZM12.5 13l.353-.354a.5.5 0 0 1 0 .707l-.353-.353ZM.146 1.354A.5.5 0 1 1 .854.646l-.708.708Zm0 23.292 12-12 .708.708-12 12-.708-.708Zm12-11.292-12-12L.854.646l12 12-.707.708Z" />
	</symbol>
	<symbol id="caret-left" viewBox="0 0 13 26">
		<path d="M12.146 25.354a.5.5 0 0 0 .707-.708l-.707.708ZM.5 13l-.354-.354a.5.5 0 0 0 0 .707l.354-.353ZM12.854 1.354a.5.5 0 0 0-.708-.708l.708.708Zm0 23.292-12-12-.708.708 12 12 .707-.708Zm-12-11.292 12-12-.708-.708-12 12 .707.708Z"/>
	</symbol>
	<symbol id="caret-down" viewBox="0 0 18.5 10">
		<path d="M18.28.22a.754.754 0 0 0-1.06 0L9.25 8.19 1.28.22a.754.754 0 0 0-1.06 0c-.29.29-.29.77 0 1.06l8.5 8.5c.15.15.34.22.53.22s.38-.07.53-.22l8.5-8.5c.29-.29.29-.77 0-1.06Z"/>
	</symbol>
	<symbol id="close" viewBox="0 0 37 36">
		<path stroke-width="2" d="M34.527 33.941 1.293.707M35.707.707l-34 34"/>
	</symbol>
	<symbol id="swatch-blacks" viewBox="0 0 16 16">
		<path class="top" d="M0 0h16L8.36 7.64 0 16V0Z" style="fill:#4b4d4f"/><path d="M16 16H0L16 0v16Z" style="fill:#7e8081"/>
	</symbol>
	<symbol id="icon-play" viewBox="0 0 330 330">
		<path d="M37.728 328.12a14.994 14.994 0 0 0 15.222-.4l240-149.999a15 15 0 0 0 0-25.44L52.95 2.28A15 15 0 0 0 30 15v300a15.001 15.001 0 0 0 7.728 13.12z"/>
	</symbol>
	<symbol id="triangle-down" viewBox="0 0 964 482">
		<path d="M482 482 0 0h964L482 482Z" />
	</symbol>
</svg>
