<?xml version="1.0" encoding="UTF-8"?>
<svg xmlns="http://www.w3.org/2000/svg" id="Layer_1" viewBox="0 0 190.94 17.69">
  <defs>
    <style>.cls-1{fill:#fff}</style>
  </defs>
  <path class="cls-1" d="M135.1 11c0 2.47 1.31 2.75 2.31 2.75.26 0 .45-.02.59-.04V12.1c-.1.02-.2.02-.27.02-.51 0-.8-.23-.8-1.42V.15h-1.82v10.84Zm-7.19-.17c0-1.7 1.69-1.85 2.73-1.85h.43v.73c0 1.15-.61 2.68-1.86 2.68-.8 0-1.29-.69-1.29-1.55m-1.69.11c0 1.93 1.23 2.89 2.57 2.89 1.2 0 2.02-.84 2.45-1.66h.04s-.04.34-.04.77v.75h1.63V7.58c0-2.49-1.1-3.81-3.21-3.81-1.06 0-2.22.36-2.86.84l.51 1.38c.59-.38 1.45-.69 2.16-.69.96 0 1.61.5 1.61 2.14v.25h-.45c-1.71 0-4.39.4-4.39 3.27m-7.88 4.88-.53 1.38s.65.5 1.59.5c1.14 0 2.25-.82 2.74-2.43l3.39-11.28h-1.9l-1.69 6.33c-.12.46-.22 1.17-.22 1.17h-.06s-.08-.73-.22-1.21l-1.82-6.29h-1.94l3.25 9.64-.31 1.05c-.27.94-.78 1.49-1.35 1.49-.49 0-.94-.34-.94-.34m-7.82-7c0-2.07.86-3.5 2.37-3.5s2.35 1.43 2.35 3.5-.86 3.52-2.35 3.52-2.37-1.47-2.37-3.52m-1.84 0c0 2.95 1.69 5.09 4.22 5.09s4.2-2.16 4.2-5.09-1.67-5.07-4.2-5.07-4.22 2.12-4.22 5.07m-6.92-2.12V1.8h1.71c.39 0 .88.13 1.22.36.55.36.88 1.11.88 2.03 0 1.57-1.02 2.51-2.1 2.51h-1.71Zm-1.84 6.98h1.84V8.34h2l2.25 5.37h2.04l-2.35-5.22c-.18-.42-.35-.65-.35-.65V7.8c1.02-.54 2.12-1.78 2.12-3.69 0-1.68-.8-2.93-1.94-3.48-.59-.31-1.29-.44-1.82-.44h-3.78v13.52Zm-8.83-6.18c.17-.73.63-1.42 1.59-1.42.78 0 1.3.67 1.3 1.42h-2.89Zm-3.46 1.24c0 2.62 1.89 5.16 5.41 5.16 2.62 0 4.21-1.43 4.21-1.43l-1.22-2.31s-1.3.99-2.72.99c-1.05 0-2.05-.55-2.3-1.76h6.22s.08-.71.08-1.03c0-2.73-1.65-4.76-4.55-4.76-3.17 0-5.13 2.26-5.13 5.14M77.42 13.7h3.31V9.87h1.03l2.08 3.83h3.77l-3.29-5.34v-.04l2.89-4.48h-3.6l-1.95 3.25h-.94V0h-3.31v13.68Zm-7.75-3.12c0-.82 1.2-1.13 2.26-1.13h.31v.21c0 .8-.77 1.74-1.63 1.74-.65 0-.94-.36-.94-.82m-3.33.17c0 1.95 1.51 3.17 3.35 3.17 2.07 0 2.79-1.43 2.79-1.43h.04s-.04.29-.04.61v.59h3.02V7.63c0-2.51-1.66-4.02-4.44-4.02-2.43 0-4.13 1.28-4.13 1.28l1.15 2.33s1.42-.94 2.66-.94c.82 0 1.45.27 1.45 1.09v.17h-.13c-1.53 0-5.72.33-5.72 3.19m-5.57-.69c0 3.31 1.87 3.73 3.63 3.73.54 0 .99-.06.99-.06v-2.87s-.19.02-.4.02c-.75 0-.92-.32-.92-1.26V0h-3.31v10.04Zm-7.27 0c0 3.31 3.04 3.73 4.61 3.73.54 0 .9-.06.9-.06v-2.87s-.17.02-.44.02c-.63 0-1.76-.15-1.76-1.26V6.58h2.07V4h-2.07V1.17H53.6V4h-1.36v2.58h1.26v3.46Zm-10.08 2.41s1.47 1.45 3.94 1.45 4.04-1.43 4.04-3.12c0-3.17-4.61-3.29-4.61-4.04 0-.34.48-.48.98-.48 1.38 0 2.33.8 2.33.8l1.13-2.35s-1.17-1.13-3.46-1.13-4.05 1.15-4.05 3c0 3.21 4.61 3.31 4.61 4.17 0 .33-.48.46-.98.46-1.42 0-2.51-.99-2.51-.99l-1.42 2.22ZM36.17 7.5c.17-.73.63-1.42 1.59-1.42.78 0 1.3.67 1.3 1.42h-2.89Zm-3.46 1.24c0 2.62 1.89 5.16 5.41 5.16 2.62 0 4.21-1.43 4.21-1.43l-1.22-2.31s-1.3.99-2.72.99c-1.05 0-2.05-.55-2.3-1.76h6.22s.08-.71.08-1.03c0-2.73-1.64-4.76-4.55-4.76-3.18 0-5.13 2.26-5.13 5.14m-14.34 4.93h3.77l1.72-6.9c.21-.88.27-1.61.27-1.61h.04s.06.73.27 1.61l1.72 6.9h3.73L33.35-.01h-3.46l-1.87 8.55c-.17.84-.17 1.43-.17 1.43h-.04s-.02-.59-.23-1.43L25.5 0h-2.7l-2.1 8.55a7.59 7.59 0 0 0-.23 1.43h-.04s0-.59-.17-1.43L18.54 0h-3.52l3.33 13.68Zm-8.43 1.56-.38 1s.47.36 1.15.36c.83 0 1.64-.6 2-1.77l2.47-8.21H13.8l-1.23 4.6c-.09.33-.16.85-.16.85h-.04s-.06-.53-.16-.88L10.88 6.6H9.47l2.37 7.01-.23.77c-.2.68-.57 1.09-.98 1.09-.36 0-.68-.25-.68-.25M0 13.68h1.33V9.69c0-1.03.56-2 1.41-2 .7 0 .87.61.87 1.32v4.67h1.33V9.6c0-1 .58-1.92 1.43-1.92.7 0 .87.61.87 1.32v4.67h1.33V8.75c0-1.5-.61-2.3-1.75-2.3s-1.68.68-1.98 1.21h-.06c-.23-.77-.74-1.21-1.57-1.21-1.17 0-1.7.75-1.92 1.21h-.03s.04-.19.04-.45v-.6H0v7.05ZM151.2 3.89h1.5v8.38h4.26v1.39h-5.76V3.89ZM157.49 8.78c0-3.05 1.86-5.07 4.61-5.07s4.59 2.02 4.59 5.07-1.86 5.06-4.59 5.06-4.61-2.02-4.61-5.06Zm7.7 0c0-2.24-1.2-3.64-3.1-3.64s-3.11 1.39-3.11 3.64 1.22 3.63 3.11 3.63 3.1-1.4 3.1-3.63ZM176.99 8.46v5.2h-1.09l-.2-1.15c-.56.85-1.65 1.33-3 1.33-2.76 0-4.66-2.04-4.66-5.08s1.72-5.06 4.68-5.06c2.02 0 3.52 1.01 4.2 2.8l-1.37.53c-.46-1.25-1.43-1.91-2.84-1.91-2.04 0-3.17 1.37-3.17 3.6s1.13 3.68 3.26 3.68c1.61 0 2.72-.8 2.72-2.42V9.8h-2.24V8.46h3.71ZM179.35 3.89h1.5v9.76h-1.5V3.89ZM190.94 3.89v9.76h-1.57l-4.33-7.19v7.19h-1.5V3.89h1.55l4.34 7.14V3.89h1.5Z"></path>
</svg>
